<svg xmlns="http://www.w3.org/2000/svg" width="2632" height="1349" viewBox="0 0 2632 1349" fill="none"><g clip-path="url(#clip0_183_870)"><path d="M131.451 1348.59C131.451 1348.59 -151.239 746.59 405.911 746.59C700.281 746.59 579.011 581.42 779.151 390.27C979.291 199.12 1679.22 46.4003 1828.15 415.52C1977.08 784.64 1608.96 1064.89 1964.71 1016.81C2392.22 959.04 2561.1 1348.58 2561.1 1348.58L131.451 1348.59Z" fill="#EBF3FA"></path><path d="M2420.96 1272.21C2394.58 1252.93 2340.67 1265.95 2300.89 1279.87C2294.4 1270.76 2287.08 1262.27 2279.02 1254.5C2364.72 1199.29 2483.1 1081.55 2420.36 1071.58C2365.82 1062.92 2292.21 1168.9 2252.88 1233.41C2212.03 1205.93 2149.44 1185.73 2053.88 1192.74C1805.88 1210.92 1612.12 1050.94 1469.3 1104.3C1355.75 1146.72 1251.68 1170.49 1151.3 1162.37C1155.62 1089.05 1156.56 945.1 1098.98 930.17C1040.54 915.01 1097.87 1078.49 1129.73 1160.17C1122.26 1159.21 1114.81 1158.07 1107.36 1156.74C1086.72 1116.06 1052.72 1062.82 1015.36 1061C980.201 1059.28 1023.59 1107.15 1066.29 1147.7C943.561 1121.93 797.971 1221.7 795.561 1339.7H2327.88C2327.88 1339.7 2325.17 1322.48 2313.15 1299.78C2372.35 1298.53 2449.61 1293.13 2420.96 1272.21Z" fill="#A8D29F"></path><path d="M1129.85 1248.44H726V1339.63H1129.85V1248.44Z" fill="#4A75CB"></path><path d="M1005.32 1248.44H601.48V1339.64H1005.32V1248.44Z" fill="#699DEE"></path><path d="M1288.72 1339.61H1589.43V919.3H1288.72V1339.61Z" fill="#D86713"></path><path d="M1195.99 1339.61H1496.7V919.3H1195.99V1339.61Z" fill="#F1A34F"></path><path d="M1496.7 919.3L1589.42 982.41V919.3H1496.7Z" fill="#C95C12"></path><path d="M568.439 1012.4C568.439 1012.4 512.209 1054.22 501.239 1051.68C490.269 1049.14 542.339 1006.54 542.339 1006.54C522.749 997.12 461.839 1003.03 461.839 1003.03C461.839 1003.03 441.559 1068.45 431.549 1063.29C421.539 1058.13 452.469 1006.29 452.469 1006.29C430.649 1004.96 403.879 1021.13 403.879 1021.13C367.239 1050.06 406.289 1095.62 406.289 1095.62C406.289 1095.62 398.769 1118.13 375.629 1138.62C375.629 1138.62 342.629 1163.06 340.289 1206.73L346.289 1207.26C346.289 1207.26 355.799 1166.59 373.069 1147.36C373.749 1146.66 374.719 1145.66 375.929 1144.45C378.739 1141.84 380.709 1139.88 382.039 1138.45C390.639 1130.18 402.519 1119.66 408.249 1118.64C408.039 1117.7 407.955 1116.73 407.999 1115.76C408.079 1116.68 408.159 1117.63 408.249 1118.64C410.249 1141.64 454.869 1161.77 482.349 1165.9C509.829 1170.03 501.349 1158.74 491.869 1142C482.389 1125.26 452.439 1117.75 445.599 1110C438.759 1102.25 452.899 1102.27 469.459 1109.83C486.019 1117.39 488.279 1137.56 514.839 1150.28C541.399 1163 581.359 1118.92 581.359 1118.92C560.189 1117.85 529.969 1094.86 531.059 1087.83C532.149 1080.8 582.369 1099.96 590.949 1100.83C599.529 1101.7 619.069 1091.07 622.089 1056.5C625.109 1021.93 568.439 1012.4 568.439 1012.4Z" fill="#82B378"></path><path d="M269.78 1038.37C269.78 1038.37 331.89 1003.58 302.9 956.37C302.9 956.37 279.72 927.37 254.9 919.93C254.9 919.93 268.15 990.32 254.9 991.93C241.65 993.54 245.79 912.42 245.79 912.42C245.79 912.42 180.36 880.95 154.69 883.42C154.69 883.42 195.27 952.16 182.02 950.5C168.77 948.84 123.22 879.28 123.22 879.28C123.22 879.28 56.1403 866.85 45.3703 906.61C34.6003 946.37 52.0003 966.24 61.9403 968.72C71.8803 971.2 135.64 970.38 133.99 978.66C132.34 986.94 89.2703 1000.19 65.2503 992.74C65.2503 992.74 91.7503 1058.16 126.53 1054.85C161.31 1051.54 172.08 1030.01 193.62 1028.35C215.16 1026.69 230.88 1032.49 220.12 1038.29C209.36 1044.09 172.91 1040.19 155.52 1054.97C138.13 1069.75 124.05 1078.87 156.35 1085.49C188.65 1092.11 246.62 1087.98 258.21 1063.13L269.78 1038.37Z" fill="#A8D29F"></path><path d="M286.34 1098.82C268.95 1066.52 269.78 1038.37 269.78 1038.37C249.88 975.42 75.9805 919.13 75.9805 919.13C297.11 1008.57 258.18 1063.23 258.18 1063.23C264.18 1066.71 273.08 1083.28 279.28 1096C280.16 1098.16 281.56 1101.16 283.64 1105.23C284.48 1107.06 285.15 1108.57 285.64 1109.62C297.02 1138.1 290.99 1187.3 290.99 1187.3L297.88 1189.13C313.16 1139.55 286.34 1098.82 286.34 1098.82Z" fill="#82B378"></path><path d="M368.59 990.4C368.59 990.4 286.72 944.55 324.93 882.32C324.93 882.32 355.49 844.11 388.24 834.32C388.24 834.32 370.78 927.11 388.24 929.32C405.7 931.53 400.24 824.52 400.24 824.52C400.24 824.52 486.49 783.04 520.33 786.31C520.33 786.31 466.83 876.92 484.33 874.74C501.83 872.56 561.84 780.85 561.84 780.85C561.84 780.85 650.27 764.48 664.46 816.85C678.65 869.22 655.73 895.45 642.63 898.72C629.53 901.99 545.47 900.91 547.63 911.83C549.79 922.75 606.63 940.21 638.24 930.38C638.24 930.38 603.31 1016.63 557.46 1012.26C511.61 1007.89 497.41 979.51 469.03 977.33C440.65 975.15 419.9 982.78 434.09 990.43C448.28 998.08 496.32 992.93 519.25 1012.43C542.18 1031.93 560.73 1043.93 518.15 1052.66C475.57 1061.39 399.15 1055.94 383.88 1023.19L368.59 990.4Z" fill="#A8D29F"></path><path d="M624.05 833.19C624.05 833.19 394.79 907.43 368.59 990.4C368.59 990.4 369.69 1027.51 346.76 1070.09C346.76 1070.09 311.4 1123.78 331.56 1189.09L340.66 1186.65C340.66 1186.65 332.71 1121.8 347.71 1084.25C348.33 1082.87 349.21 1080.88 350.32 1078.46C353.06 1073.1 354.91 1069.15 356.07 1066.3C364.24 1049.54 376.02 1027.69 383.88 1023.11C383.88 1023.13 332.57 951.13 624.05 833.19Z" fill="#82B378"></path><path d="M365.879 1330.85C386.941 1330.85 407.796 1326.7 427.254 1318.64C446.712 1310.58 464.392 1298.77 479.285 1283.88C494.178 1268.98 505.991 1251.3 514.051 1231.84C522.111 1212.39 526.259 1191.53 526.259 1170.47H205.449C205.449 1191.54 209.599 1212.39 217.662 1231.86C225.725 1251.32 237.543 1269 252.441 1283.89C267.339 1298.79 285.025 1310.6 304.489 1318.66C323.953 1326.71 344.814 1330.86 365.879 1330.85Z" fill="#F1A34F"></path><path d="M405.3 1329.63C382.736 1332.43 359.834 1330.4 338.112 1323.68C316.39 1316.97 296.342 1305.71 279.296 1290.67C262.25 1275.62 248.595 1257.12 239.235 1236.4C229.875 1215.68 225.023 1193.21 225 1170.47H264.88C264.884 1209.55 279.153 1247.28 305.008 1276.59C330.863 1305.9 366.525 1324.76 405.3 1329.63V1329.63Z" fill="#FFB973"></path><path d="M508.65 1319.82H223.02C217.773 1319.82 212.742 1321.91 209.033 1325.62C205.324 1329.33 203.24 1334.36 203.24 1339.61H528.43C528.43 1334.36 526.347 1329.33 522.637 1325.62C518.928 1321.91 513.897 1319.82 508.65 1319.82V1319.82Z" fill="#F1A34F"></path><path d="M527.41 1170.47H202.64C201.987 1170.47 201.362 1170.73 200.9 1171.19C200.439 1171.65 200.18 1172.28 200.18 1172.93C200.18 1173.58 200.439 1174.21 200.9 1174.67C201.362 1175.13 201.987 1175.39 202.64 1175.39H527.41C528.062 1175.39 528.688 1175.13 529.149 1174.67C529.611 1174.21 529.87 1173.58 529.87 1172.93C529.87 1172.28 529.611 1171.65 529.149 1171.19C528.688 1170.73 528.062 1170.47 527.41 1170.47V1170.47Z" fill="#D86713"></path><path d="M1765.01 325.91C1760.36 325.2 1746.35 338.15 1746.35 338.15C1716.44 341.61 1672.71 349.55 1656.97 352.58C1645.8 354.73 1615.79 344.5 1586.47 332.75C1551.6 318.75 1517.72 302.65 1517.72 302.65C1498.37 301.65 1476.4 336.96 1515.64 359.4C1521.64 362.83 1544.13 368.68 1570.05 374.02C1605.8 381.39 1648.05 387.78 1662.41 385.54C1679.11 382.93 1726.41 365.63 1754.5 352.39H1754.57L1754.88 352.24C1756.57 351.45 1763.45 348.38 1768.05 348.66C1773.32 348.97 1785.05 339.33 1785.41 336.76C1785.77 334.19 1769.66 326.61 1765.01 325.91Z" fill="#ED975D"></path><path d="M1728.49 770.59L1712.02 773.94C1712.02 773.94 1636.65 689.26 1625.02 653.63C1618.8 634.63 1579.02 626.35 1537.42 615.63C1501.23 606.28 1463.68 595 1445.75 573C1407.2 525.74 1469.95 467.66 1469.95 467.66C1469.95 467.66 1536.68 507.32 1594.24 548.29C1634.47 576.92 1670.24 606.19 1675.62 623.01C1688.71 663.89 1716.46 741.65 1728.49 770.59Z" fill="#2B478B"></path><path d="M1706.44 798.53H1715.71C1718.81 798.04 1721.1 797.14 1724.28 796.73C1729.12 796.09 1731.34 798.08 1731.78 798.53L1731.87 798.62H1771.22C1772.22 797.21 1771.22 793.94 1770.33 791.53C1770.02 790.721 1769.53 789.995 1768.89 789.41C1768.25 788.825 1767.48 788.397 1766.65 788.16C1762.48 786.95 1754.25 785.87 1746.71 779.05C1742.48 775.22 1726.25 764.97 1726.25 764.97H1726.16C1725.8 764.97 1724.16 765.5 1716.72 771.73C1712.91 774.95 1706.4 767.19 1706.4 767.19C1705.51 768.005 1704.79 768.987 1704.27 770.08C1703.36 771.94 1703.06 774.04 1703.42 776.08C1704.01 779.63 1702.12 786.22 1700.6 790.67C1699.69 793.37 1698.92 795.29 1698.92 795.29C1698.92 795.29 1698.47 797.53 1706.44 798.53Z" fill="#233862"></path><path d="M1594.24 548.26L1537.42 615.6C1501.23 606.25 1463.68 594.97 1445.75 572.97C1407.2 525.71 1469.95 467.63 1469.95 467.63C1469.95 467.63 1536.68 507.29 1594.24 548.26Z" fill="#1E3D70"></path><path d="M1542.61 513.13C1542.61 513.13 1538.03 527.57 1530.61 549.3C1521.18 576.78 1507.14 615.9 1491.91 652.19C1488.56 660.19 1485.15 668 1481.72 675.54C1469.05 703.46 1456.09 727.4 1444.72 739.54C1424.2 761.4 1374.33 901.97 1374.33 901.97L1361.9 898.53C1361.9 898.53 1344.57 778.53 1405.9 710.2C1406.59 709.514 1407.03 708.615 1407.14 707.65C1407.96 697.54 1410.88 652.27 1417.24 606.39C1418.8 595.13 1420.57 583.85 1422.55 573.04C1422.68 572.34 1422.81 571.66 1422.94 570.98C1432.27 520.98 1441.21 498.74 1452.75 487.56L1537.62 511.71L1542.61 513.13Z" fill="#2B478B"></path><path d="M1360.42 919.21H1369.69C1372.79 918.72 1375.08 917.82 1378.26 917.4C1383.1 916.77 1385.32 918.75 1385.76 919.21L1385.85 919.3H1425.2C1426.2 917.88 1425.2 914.61 1424.31 912.2C1424 911.392 1423.5 910.667 1422.87 910.082C1422.23 909.497 1421.46 909.069 1420.63 908.83C1416.45 907.62 1408.23 906.55 1400.69 899.73C1396.45 895.9 1380.22 885.64 1380.22 885.64H1380.14C1379.78 885.64 1378.14 886.17 1370.7 892.4C1366.89 895.62 1360.38 887.86 1360.38 887.86C1359.49 888.675 1358.76 889.657 1358.25 890.75C1357.33 892.625 1357.03 894.744 1357.4 896.8C1357.99 900.34 1356.1 906.93 1354.59 911.39C1353.67 914.09 1352.89 916 1352.89 916C1352.89 916 1352.45 918.21 1360.42 919.21Z" fill="#233862"></path><path d="M1378.62 349.84C1378.62 349.84 1364.42 384.57 1348.05 418.38C1334.28 446.81 1318.98 474.58 1309.28 480.51C1295.6 488.86 1257.92 512.43 1233.47 530.02C1233.47 530.02 1214.4 529.87 1211.47 533.52C1208.54 537.17 1201.67 553.59 1203.67 555.25C1205.67 556.91 1220.83 556.14 1224.51 552.36C1227.73 549.07 1234.88 546.7 1236.66 546.15L1236.99 546.04H1237.07C1266.77 536.9 1313.37 517.86 1327.47 508.55C1339.62 500.55 1366.54 467.37 1388.01 437.86C1403.58 416.46 1416.28 396.99 1418.4 390.42C1432.28 347.39 1392.26 336.13 1378.62 349.84Z" fill="#FFB27D"></path><path d="M1452.88 213.62C1451.31 211.336 1449.62 209.142 1447.8 207.05C1449.93 207.161 1452.06 206.841 1454.06 206.11C1459.06 204.05 1461.32 188.23 1460.57 183.53C1459.82 178.83 1452.9 165.27 1444.36 163.92C1435.82 162.57 1427 172.04 1427 172.04C1428.58 165.2 1443 161.25 1443 161.25C1413.25 166.74 1414.77 186.58 1415 188.42C1387.77 178.71 1371.78 230 1371.78 230L1442.33 271.58C1442.33 271.58 1442.51 260.25 1449.24 260.98C1459.73 262.13 1468.47 236.34 1452.88 213.62Z" fill="#2C3A64"></path><path d="M1457.38 321.24C1441.19 328.87 1419.71 317.88 1419.82 317.76C1421.21 316.38 1420.72 312.22 1419.45 306.76C1418.18 301.09 1415.17 293.34 1409.62 284.1C1408.47 282.1 1407.31 280.16 1405.92 278.1L1407.77 277.41L1439.22 264.81C1439.22 264.81 1444.31 273.94 1449.63 282.26C1454.14 289.2 1458.88 295.45 1460.96 295.21C1461.08 295.13 1481.88 309.45 1457.38 321.24Z" fill="#FFB27D"></path><path d="M1439.22 267.94C1438.41 279.15 1434.6 299.39 1419.45 306.79C1418.18 301.12 1415.17 293.37 1409.62 284.13L1439.22 267.94Z" fill="#ED975D"></path><path d="M1407.78 296.89C1407.78 296.89 1448.73 280.75 1438.28 255.41C1427.83 230.07 1426.09 210.91 1399.51 220.15C1372.93 229.39 1371.86 241.15 1373.29 250.43C1374.72 259.71 1396.88 300.43 1407.78 296.89Z" fill="#FFB27D"></path><path d="M1423.05 249.63C1441.96 246.96 1447.48 239.32 1447.48 239.32C1436 235.388 1426.25 227.594 1419.88 217.27C1419.88 217.27 1398.63 210.1 1382.88 222.08C1381.88 223.384 1381.19 224.904 1380.88 226.52C1377.27 225.34 1371.88 225.65 1368.71 235.85C1364.01 251.17 1380.71 267.91 1380.71 267.91C1384.77 266.76 1380.19 253.1 1379.55 245.81C1379.08 240.45 1381.98 233.58 1383.55 230.33C1385.55 232.93 1405.5 257.99 1429.85 258.99C1421.09 255.731 1412.82 251.294 1405.27 245.8C1411.09 248.66 1417.28 250.44 1423.05 249.63Z" fill="#2C3A64"></path><path d="M1535.33 373.46C1534.98 372.23 1534.61 370.96 1534.22 369.66C1539.41 359.994 1542.91 349.508 1544.55 338.66C1547.33 319.93 1542.55 308.36 1542.55 308.36C1542.55 308.36 1514.15 293.3 1501.61 291.36L1501.45 291.31L1500.95 291.26C1488.29 289.52 1460.88 295.11 1460.88 295.11C1460.88 295.11 1466.17 309.19 1451.26 318.57C1436.35 327.95 1420.41 316.16 1420.41 316.16C1419.93 316.49 1419.41 316.84 1418.9 317.22C1418.9 317.22 1379.66 343.12 1376.14 349.03C1372.62 354.94 1357.52 384.25 1357.52 384.25C1357.52 384.25 1362.31 408.84 1415.32 410.9C1419.68 421.47 1423.02 431.78 1424.1 440.38C1428.31 473.77 1423.42 500.1 1428.33 519.59C1433.24 539.08 1521.69 527.97 1537.71 524.22C1553.73 520.47 1550.12 503.36 1551.36 486.75C1552.94 465.93 1540.55 391.87 1535.33 373.46Z" fill="#699DEE"></path><path d="M1544.55 338.7C1542.89 349.587 1539.38 360.107 1534.15 369.8C1532.76 363.67 1527.15 341.24 1517.96 331.07C1517.96 331.07 1533.34 332.46 1544.55 338.7Z" fill="#4A82D3"></path><path d="M1184.4 557.51C1184.4 557.51 1200.88 537.51 1204.4 535.18C1207.92 532.85 1223.51 528.68 1224.4 529.51C1225.29 530.34 1225.33 531.51 1223.4 533.26C1221.47 535.01 1214.11 539.26 1215.16 539.74C1216.21 540.22 1238.42 529.17 1241.63 532.89C1244.84 536.61 1239.81 551.95 1231.25 559.31C1222.69 566.67 1197.15 569.81 1195.55 570.84C1181.95 579.55 1184.4 557.51 1184.4 557.51Z" fill="#ED975D"></path><path d="M894.27 511.4C894.27 511.4 917.949 539.48 948.089 527.73C948.089 527.73 954.58 512.05 954.67 500.48C954.67 499.06 954.67 497.68 954.67 496.37C954.83 483.37 955.27 476.04 955.27 476.04C953.9 475.47 909.179 457.11 909.219 458.63C910.009 493.85 894.27 511.4 894.27 511.4Z" fill="#FFB27D"></path><path d="M913.73 467.03C918.04 475.03 932.84 490.66 954.73 496.37C954.89 483.37 955.33 476.04 955.33 476.04C954.05 475.71 912.45 464.67 913.73 467.03Z" fill="#ED975D"></path><path d="M964.69 474.69C964.69 474.69 914.4 486.51 907.52 455.08C900.64 423.65 889.52 404.01 921.33 395.14C953.14 386.27 962.03 396.88 966.88 406.81C971.73 416.74 977.59 470.81 964.69 474.69Z" fill="#FFB27D"></path><path d="M909.241 463.65C908.551 464.09 897.731 467.41 877.241 426.59C874.021 420.18 871.831 406.32 879.331 394.07C886.831 381.82 913.421 372.19 935.511 368C957.601 363.81 962.901 376.24 968.101 388.73C973.561 401.84 989.331 412.64 989.331 412.64C970.331 423.28 947.331 408.06 939.391 410.56C931.451 413.06 928.641 425.56 928.041 429.61C927.441 433.66 926.531 436.96 916.531 433.37C906.531 429.78 912.011 447.54 913.611 450.93C913.611 450.93 914.971 459.97 909.241 463.65Z" fill="#A9453D"></path><path d="M779.7 1248.44H749.25C742.87 1248.44 735.77 1241.96 734 1230.11C732.23 1218.26 719.1 1211.77 716.26 1202.11C713.42 1192.45 727.97 1178.74 727.97 1178.74L730.4 1175.57L732.93 1172.27L757.05 1178.02C757.05 1178.02 757.65 1183.84 758.05 1191.26C758.31 1196.61 758.45 1202.8 758.15 1208.26C757.44 1221.26 761.72 1235.14 773.07 1237.66C784.42 1240.18 779.7 1248.44 779.7 1248.44Z" fill="#2C3A64"></path><path d="M991.67 1248.73H910.96C910.369 1248.64 909.794 1248.47 909.25 1248.22C903.86 1245.44 905.55 1224.22 906.19 1217.64C906.32 1216.42 906.41 1215.71 906.41 1215.71C906.41 1215.71 934.79 1192.34 938.69 1210.24C938.82 1210.79 938.96 1211.34 939.11 1211.88C944.04 1228.62 966.11 1236.23 978.79 1238.35C988.51 1239.99 991.03 1245.82 991.67 1248.73Z" fill="#2C3A64"></path><path d="M975.411 781.98C975.411 781.98 971.101 835.76 966.031 900.4C959.141 988.22 950.861 1096.09 950.031 1116.52C948.621 1152 942.941 1208.76 942.941 1208.76C942.941 1208.76 929.461 1222.25 902.491 1216.56C902.491 1216.56 878.491 1135.56 871.601 1049.81C871.491 1048.4 871.381 1046.99 871.281 1045.57C864.891 958.3 854.961 774.57 854.961 774.57L975.411 781.98Z" fill="#EE9849"></path><path d="M975.411 781.98C975.411 781.98 971.101 835.76 966.031 900.4L871.611 1049.81C871.501 1048.4 871.391 1046.99 871.291 1045.57C864.901 958.3 854.971 774.57 854.971 774.57L975.411 781.98Z" fill="#E58638"></path><path d="M955.719 788.37C955.719 788.37 878.03 983.13 826.94 1074.66C775.85 1166.19 759.94 1191.73 759.94 1191.73C759.94 1191.73 730.68 1180.03 728.02 1172.04C728.02 1172.04 747.55 995.34 781.76 952.27C801.09 927.93 823.76 854.89 824.87 829.34C825.98 803.79 831.78 753.25 831.78 753.25L955.719 788.37Z" fill="#EE9849"></path><path d="M777.88 755.93C777.88 755.93 775.88 780.26 774.39 783.99C772.9 787.72 763.06 799.3 761.88 799.13C760.7 798.96 760.06 798.05 760.64 795.69C761.22 793.33 764.64 786.05 763.53 786.24C762.42 786.43 751.21 806.94 746.73 805.78C742.25 804.62 737.88 790.05 740.54 779.78C743.2 769.51 761.29 753.31 761.98 751.65C767.88 737.56 777.88 755.93 777.88 755.93Z" fill="#ED975D"></path><path d="M769.501 762.13C778.101 764.89 779.501 764.27 779.501 764.27C779.501 764.27 821.351 688.07 825.591 681.09C829.831 674.11 914.461 595.64 914.461 595.64L892.711 514.54C892.711 514.54 796.441 639.13 786.041 657.04C768.881 686.59 758.801 755.23 758.801 755.23C761.719 758.407 765.403 760.782 769.501 762.13V762.13Z" fill="#1E3D70"></path><path d="M991.81 627.45C991.51 644.1 990.54 662.82 989.23 681.84L988.99 685.22C988.16 697 987.25 708.81 986.22 720.32C985.8 724.94 985.356 729.496 984.89 733.99L984.82 734.59C984.82 736.27 984.58 738.09 984.4 739.75C980.15 782.87 975.7 816.95 974.88 817.47C973.917 818.147 972.739 818.446 971.57 818.31C960.26 816.89 926.51 819.46 898.89 813.45C875.58 808.53 855.5 799.21 834.23 786.64C831.41 784.97 824.97 780.55 825.5 777.25C826.01 773.62 826.96 768.37 828.17 761.77C832.36 738.83 839.59 699.37 842.06 653.19C842.54 644.59 843.24 636.09 844.15 627.74C846.273 607.211 850.042 586.885 855.42 566.96C864.89 532.85 878.81 506.73 896.27 496.51C898.55 495.24 910.83 503.05 922.1 510.28C931.599 516.361 942.881 519.037 954.1 517.87L963.48 528.25C974.85 541.46 986.95 559.05 990.25 584.04C990.5 585.89 990.71 587.85 990.89 589.94C991.835 602.419 992.142 614.939 991.81 627.45V627.45Z" fill="#2A4E96"></path><path d="M991.809 627.45C991.509 644.1 990.539 662.82 989.229 681.84L988.989 685.22C924.389 644.79 914.439 570.79 914.439 570.79C946.219 572.18 971.439 579.49 990.929 589.94C991.862 602.42 992.155 614.94 991.809 627.45V627.45Z" fill="#1E3D70"></path><path d="M1194.21 559.51C1190.88 550.51 1185.7 551.08 1185.7 551.08C1185.7 551.08 1089.64 575.02 1081.02 576.08C1072.4 577.14 977.589 539.08 977.589 539.08C977.589 539.08 940.269 522.33 922.789 537.62C907.599 550.91 906.909 567.74 910.459 581.88C912.56 590.112 917.092 597.52 923.466 603.138C929.84 608.755 937.759 612.321 946.19 613.37C984.87 618.3 1062.04 627.57 1078.19 625.32C1114.19 620.32 1195.77 573.22 1195.77 573.22C1196.31 568.591 1195.78 563.9 1194.21 559.51V559.51Z" fill="#2A4E96"></path><path d="M2141.34 735.56C2141.34 735.56 2154.68 747.93 2152.08 756.72C2149.48 765.51 2137.43 771.36 2135.8 782.11C2134.17 792.86 2127.67 798.71 2121.8 798.71H2093.88C2093.88 798.71 2089.56 791.15 2099.98 788.87C2110.4 786.59 2114.32 773.97 2113.67 762.25C2113.02 750.53 2114.67 734.91 2114.67 734.91L2136.8 729.7L2141.34 735.56Z" fill="#2C3A64"></path><path d="M1975.02 797.24C1973.67 797.92 1968.91 798.39 1962.38 798.7H1899.21C1899.43 796.83 1900.9 790.13 1911.21 788.46C1922.88 786.57 1943.09 779.78 1947.59 764.86C1947.75 764.38 1947.88 763.893 1947.98 763.4C1951.56 747.45 1977.6 768.27 1977.6 768.27C1977.6 768.27 1977.68 768.91 1977.79 770C1978.42 775.86 1979.96 794.78 1975.02 797.24Z" fill="#2C3A64"></path><path d="M1914.32 370.67C1914.32 370.67 1918.27 420.01 1922.92 479.32C1929.24 559.88 1936.84 658.85 1937.59 677.59C1938.89 710.15 1944.1 762.22 1944.1 762.22C1944.1 762.22 1956.46 774.59 1981.21 769.38C1981.21 769.38 2003.21 695.04 2009.55 616.38C2009.65 615.09 2009.75 613.79 2009.84 612.5C2015.7 532.43 2024.84 363.83 2024.84 363.83L1914.32 370.67Z" fill="#35488B"></path><path d="M1914.32 370.671C1914.32 370.671 1918.27 420.011 1922.92 479.321L2009.55 616.391C2009.65 615.101 2009.75 613.801 2009.84 612.511C2015.7 532.441 2024.84 363.841 2024.84 363.841L1914.32 370.671Z" fill="#2C3A64"></path><path d="M1932.38 376.531C1932.38 376.531 2003.66 555.221 2050.53 639.191C2097.4 723.161 2112.04 746.601 2112.04 746.601C2112.04 746.601 2138.9 735.861 2141.34 728.541C2141.34 728.541 2123.42 566.421 2092.03 526.901C2074.29 504.571 2053.46 437.561 2052.48 414.121C2051.5 390.681 2046.13 344.311 2046.13 344.311L1932.38 376.531Z" fill="#35488B"></path><path d="M1712.52 279.611C1712.52 279.611 1693.19 275.191 1689.93 275.421C1686.67 275.651 1675.3 280.421 1675.15 281.321C1675 282.221 1675.53 283.001 1677.5 283.131C1679.47 283.261 1685.94 282.431 1685.5 283.221C1685.06 284.011 1666.44 287.661 1666.24 291.421C1666.04 295.181 1676.24 302.151 1684.88 302.611C1693.52 303.071 1710.48 293.051 1711.94 292.921C1724.31 291.851 1712.52 279.611 1712.52 279.611Z" fill="#FFB27D"></path><path d="M1704.25 284.521C1701.47 275.691 1702.12 274.291 1702.12 274.291C1702.12 274.291 1780.5 231.911 1787.67 227.611C1794.84 223.311 1875.88 137.131 1875.88 137.131L1958.88 159.971C1958.88 159.971 1830.5 257.761 1812.1 268.291C1781.7 285.691 1711.29 295.541 1711.29 295.541C1708.03 292.535 1705.61 288.739 1704.25 284.521V284.521Z" fill="#E58638"></path><path d="M1900.98 95.2206C1900.98 95.2206 1871.9 146.391 1843.47 153.071C1843.47 153.071 1844.65 135.881 1851.57 124.121C1848.74 120.781 1846.25 117.711 1844.09 114.961C1840.31 110.223 1836.79 105.289 1833.54 100.181L1843.18 74.2406L1849.73 56.6406C1852.61 61.9027 1856.04 66.8439 1859.96 71.3806C1878.59 92.8006 1900.98 95.2206 1900.98 95.2206Z" fill="#FFB27D"></path><path d="M1859.96 71.3808C1859.96 71.3808 1863.43 97.0308 1844.09 114.961C1840.31 110.223 1836.79 105.29 1833.54 100.181L1843.18 74.2408C1853.53 71.1308 1859.96 71.3808 1859.96 71.3808Z" fill="#ED975D"></path><path d="M1825.88 103.961C1825.88 103.961 1869.34 87.0206 1858.37 60.1206C1847.4 33.2206 1845.63 12.9206 1817.37 22.6006C1789.11 32.2806 1787.99 44.7306 1789.46 54.6006C1790.93 64.4706 1814.29 107.671 1825.88 103.961Z" fill="#FFB27D"></path><path d="M2050.35 357.81C2032.82 383.01 1901.76 416.69 1903.35 399.24C1904.4 387.797 1904.4 376.283 1903.35 364.84C1903.02 361.1 1902.56 357.137 1901.96 352.95C1898.63 330.03 1890.72 300.55 1873.08 266.44C1871.75 263.88 1870.37 261.3 1868.95 258.7C1861.76 245.622 1855.68 231.964 1850.78 217.87C1841.7 191.63 1838.04 166.52 1842.62 150.11C1842.62 150.03 1842.62 149.95 1842.69 149.88C1870.09 137.21 1880.69 88.0801 1880.69 88.0801C1880.69 88.0801 1974.15 104.86 2026.51 229.44C2026.47 229.44 2065.6 335.88 2050.35 357.81Z" fill="#EE9849"></path><path d="M1903.29 364.841C1902.96 361.101 1902.5 357.138 1901.9 352.951C1898.57 330.031 1890.66 300.551 1873.02 266.441C1876.02 248.081 1880.23 232.811 1884.82 225.941C1903.46 198.001 1914.32 193.631 1914.32 193.631C1914.32 193.631 1942.27 311.531 1903.29 364.841Z" fill="#E58638"></path><path d="M1755.96 336.79C1755.96 336.79 1730.1 338.14 1726.09 339.59C1722.08 341.04 1709.5 351.08 1709.64 352.29C1709.78 353.5 1710.72 354.29 1713.24 353.72C1715.76 353.15 1723.59 349.82 1723.35 350.95C1723.11 352.08 1701.01 363.35 1702.09 368.13C1703.17 372.91 1718.5 378.03 1729.5 375.53C1740.5 373.03 1758.24 354.38 1760.02 353.7C1775.13 347.93 1755.96 336.79 1755.96 336.79Z" fill="#FFB27D"></path><path d="M1751.08 346.591C1745.9 338.221 1749.64 334.411 1749.64 334.411C1749.64 334.411 1829.51 271.871 1835.77 265.551C1842.03 259.231 1871.03 158.631 1871.03 158.631C1871.03 158.631 1881.03 117.921 1904.39 113.431C1924.7 109.531 1938.74 119.581 1947.93 131.361C1953.26 138.245 1956.39 146.575 1956.91 155.264C1957.43 163.953 1955.32 172.598 1950.86 180.071C1930.47 214.441 1889.33 282.651 1877.32 294.301C1850.58 320.241 1761.12 356.491 1761.12 356.491C1757.06 354.004 1753.62 350.617 1751.08 346.591V346.591Z" fill="#EE9849"></path><path d="M1864.6 10.1305C1864.9 9.53046 1865.79 8.89047 1867.94 8.23047C1866.52 7.81868 1865.02 7.76372 1863.57 8.07047C1862.35 5.07047 1859.38 0.0204687 1853.82 -0.0195312C1854.8 0.278284 1855.7 0.792186 1856.46 1.48441C1857.21 2.17663 1857.81 3.02956 1858.19 3.98047C1850.57 -0.859531 1836.44 -2.25954 1801.19 9.49046C1754.7 24.9705 1777.93 51.9605 1784.97 54.1205C1792.01 56.2805 1804.97 42.4005 1816.65 40.5005C1828.33 38.6005 1834.65 54.8605 1839.07 56.2105C1843.49 57.5605 1840.99 53.8605 1845.65 50.1505C1850.31 46.4405 1852.98 55.1505 1852.88 61.2805C1852.78 67.4105 1861.88 73.2005 1861.88 73.2005L1867.21 63.4305C1872.53 53.6605 1871.08 18.2005 1865.99 11.8105C1865.5 11.3005 1865.06 10.7305 1864.6 10.1305Z" fill="#2B478B"></path><path d="M2628.09 1339.61H3.46C1.54909 1339.61 0 1341.16 0 1343.07V1345.54C0 1347.45 1.54909 1349 3.46 1349H2628.09C2630 1349 2631.55 1347.45 2631.55 1345.54V1343.07C2631.55 1341.16 2630 1339.61 2628.09 1339.61Z" fill="#2E3552"></path><path d="M1129.85 1247.41V1300.02L1005.32 1247.41H1129.85Z" fill="#4271BC"></path><path d="M2195.53 798.7H1783.71V1339.61H2195.53V798.7Z" fill="#4A75CB"></path><path d="M2068.55 798.7H1656.72V1339.61H2068.55V798.7Z" fill="#699DEE"></path><path d="M2195.53 798.7V879.59L2068.55 798.7H2195.53Z" fill="#4271BC"></path></g><defs><clipPath id="clip0_183_870"><rect width="2631.55" height="1349" fill="white"></rect></clipPath></defs></svg>
